<svg width="1126" height="757" viewBox="0 0 1126 757" fill="none" xmlns="http://www.w3.org/2000/svg">
<g id="auth 1">
<g clip-path="url(#clip0)">
<g id="Auth">
<path id="Vector" opacity="0.1" d="M636.899 103.062C564.724 103.156 495.252 83.2321 428.802 61.0982C362.353 38.9643 296.415 14.1789 225.582 3.6761C180.027 -3.07502 128.226 -2.45445 92.6159 22.0583C58.3387 45.6402 48.4128 84.6707 43.6237 120.73C40.0222 147.857 38.3614 176.328 51.8502 201.142C61.2161 218.367 77.2443 232.565 88.5413 248.982C127.974 306.094 104.26 379.05 65.9377 437.487C47.9687 464.906 26.9196 491.186 13.3343 520.174C-0.251071 549.163 -5.82232 582.035 8.03338 610.647C21.7636 639.005 52.7772 659.588 86.0598 673.645C153.649 702.248 232.341 708.378 308.919 710.738C478.432 715.976 648.273 705.294 817.66 694.613C880.344 690.664 943.308 686.686 1004.7 675.243C1038.78 668.897 1073.88 659.475 1098.05 638.827C1128.72 612.612 1135 569.811 1112.68 539.046C1075.24 487.444 976.532 477.712 949.69 421.879C934.888 391.142 947.653 355.891 966.452 326.263C1006.77 262.692 1076.18 205.749 1077.35 134.646C1078.15 85.8179 1042.05 38.1839 988.148 16.9621C931.644 -5.26584 854.602 0.450982 815.014 41.8792C774.307 84.5579 700.625 102.997 636.899 103.062Z" fill="#FFBB02"/>
<path id="Vector_2" d="M958.341 606.811C958.341 606.811 946.475 599.185 934.714 604.611C934.714 604.611 938.335 611.4 953.224 610.76L958.341 606.811Z" fill="#FFBB02"/>
<path id="Vector_3" d="M959.847 607.215C959.847 607.215 963.459 620.605 954.402 629.716C954.402 629.716 948.956 624.197 954.402 610.676L959.847 607.215Z" fill="#FFBB02"/>
<path id="Vector_4" d="M974.601 594.362C974.601 594.362 973.722 582.975 947.315 586.755C947.315 586.755 947.189 594.099 956.458 597.578C965.728 601.057 969.976 598.123 974.601 594.362Z" fill="#FFBB02"/>
<path id="Vector_5" d="M976.262 594.287C976.262 594.287 987.424 597.775 977.469 621.893C977.469 621.893 970.102 620.295 968.779 610.694C967.456 601.094 971.376 597.784 976.262 594.287Z" fill="#FFBB02"/>
<path id="Vector_6" d="M991.17 578.133C991.17 578.133 992.686 559.393 965.699 561.312C965.699 561.312 963.768 578.236 986.41 582.637L991.17 578.133Z" fill="#FFBB02"/>
<path id="Vector_7" d="M1009 556.977C1009 556.977 1005.31 535.736 978.328 542.064C978.328 542.064 978.232 560.428 1004.6 562.036L1009 556.977Z" fill="#FFBB02"/>
<path id="Vector_8" d="M1022.04 535.106C1022.04 535.106 1015.84 514.42 989.113 520.607C989.113 520.607 995.476 539.215 1020.26 538.924L1022.04 535.106Z" fill="#FFBB02"/>
<path id="Vector_9" d="M1034.42 513.743C1034.42 513.743 1028.36 492.277 1002.55 498.699C1002.55 498.699 1011.17 519.094 1032.71 517.373L1034.42 513.743Z" fill="#FFBB02"/>
<path id="Vector_10" d="M1042.39 493.452C1042.39 493.452 1037.74 467.2 1013.68 473.011C1013.68 473.011 1020.67 496.894 1040.63 497.279L1042.39 493.452Z" fill="#FFBB02"/>
<path id="Vector_11" d="M1049.88 468.94C1049.88 468.94 1044.29 442.48 1019.94 450.134C1019.94 450.134 1029.48 475.145 1048.15 472.56L1049.88 468.94Z" fill="#FFBB02"/>
<path id="Vector_12" d="M1054.47 446.129C1054.47 446.129 1045.6 419.66 1026.78 420.375C1026.78 420.375 1035.85 448.329 1052.9 451.404L1054.47 446.129Z" fill="#FFBB02"/>
<path id="Vector_13" d="M1057.45 423.863C1057.45 423.863 1047.79 392.007 1032.48 394.461C1032.48 394.461 1039.16 418.814 1056.9 428.828L1057.45 423.863Z" fill="#FFBB02"/>
<path id="Vector_14" d="M1059.13 397.301C1059.13 397.301 1050.07 370.757 1034.99 369.694C1034.99 369.694 1041.15 395.815 1058.83 404.202L1059.13 397.301Z" fill="#FFBB02"/>
<path id="Vector_15" d="M1060.95 372.515C1060.95 372.515 1049.66 345.943 1039.71 345.341C1039.71 345.341 1044.61 371.509 1059.98 376.878L1060.95 372.515Z" fill="#FFBB02"/>
<path id="Vector_16" d="M1062.2 349.46C1062.2 349.46 1055.25 320.603 1045.28 318.205C1045.28 318.205 1046.64 341.815 1061.19 351.622L1062.2 349.46Z" fill="#FFBB02"/>
<path id="Vector_17" d="M1065.96 319.258C1065.96 319.258 1058.66 296.25 1050.58 292.743C1050.58 292.743 1052.17 319.87 1064.1 324.881L1065.96 319.258Z" fill="#FFBB02"/>
<path id="Vector_18" d="M1069.08 299.513L1070.55 258.95C1070.55 258.95 1055.44 289.527 1067.99 306.631L1069.08 299.513Z" fill="#FFBB02"/>
<path id="Vector_19" d="M1080.74 259.166C1080.74 259.166 1091.63 229.547 1094.26 227.893C1094.26 227.893 1072.92 247.112 1075.01 271.831L1080.74 259.166Z" fill="#FFBB02"/>
<path id="Vector_20" d="M991.904 577.992C991.904 577.992 1011.04 575.557 1010.47 601.893C1010.47 601.893 993.178 604.639 987.53 582.853L991.904 577.992Z" fill="#FFBB02"/>
<path id="Vector_21" d="M1009.91 556.262C1009.91 556.262 1032.02 556.196 1030.19 583.154C1030.19 583.154 1011.62 586.388 1005.5 561.358L1009.91 556.262Z" fill="#FFBB02"/>
<path id="Vector_22" d="M1022.25 536.846C1022.25 536.846 1042.32 527.678 1055.17 551.345C1055.17 551.345 1036.63 558.98 1020.47 540.673L1022.25 536.846Z" fill="#FFBB02"/>
<path id="Vector_23" d="M1034.86 513.941C1034.86 513.941 1055.42 504.19 1067.49 527.302C1067.49 527.302 1046.07 534.486 1033.16 517.598L1034.86 513.941Z" fill="#FFBB02"/>
<path id="Vector_24" d="M1042.13 494.026C1042.13 494.026 1061.92 475.625 1077.7 494.233C1077.7 494.233 1057.49 509.381 1041.22 498.126L1042.13 494.026Z" fill="#FFBB02"/>
<path id="Vector_25" d="M1048.76 468.31C1048.76 468.31 1068.66 449.504 1084.32 469.175C1084.32 469.175 1061.98 484.623 1048.04 472.259L1048.76 468.31Z" fill="#FFBB02"/>
<path id="Vector_26" d="M1052.47 445.377C1052.47 445.377 1067.81 421.87 1085.86 427.117C1085.86 427.117 1069.95 452.005 1052.65 450.896L1052.47 445.377Z" fill="#FFBB02"/>
<path id="Vector_27" d="M1056.99 423.713C1056.99 423.713 1072.44 394.113 1087.06 399.266C1087.06 399.266 1075.92 422.02 1056.6 428.706L1056.99 423.713Z" fill="#FFBB02"/>
<path id="Vector_28" d="M1058.06 395.759C1058.06 395.759 1073.95 372.459 1088.83 375.308C1088.83 375.308 1075.84 398.937 1056.52 402.5L1058.06 395.759Z" fill="#FFBB02"/>
<path id="Vector_29" d="M1059.3 371.998C1059.3 371.998 1071.61 345.849 1081.61 345.671C1081.61 345.671 1075.7 371.631 1060.13 376.436L1059.3 371.998Z" fill="#FFBB02"/>
<path id="Vector_30" d="M1061.71 348.896C1061.71 348.896 1075.4 322.418 1085.68 322.361C1085.68 322.361 1078.68 345.003 1062.17 351.218L1061.71 348.896Z" fill="#FFBB02"/>
<path id="Vector_31" d="M1063.77 320.913C1063.77 320.913 1074 299.005 1082.48 296.523C1082.48 296.523 1077.37 323.226 1064.9 326.724L1063.77 320.913Z" fill="#FFBB02"/>
<path id="Vector_32" d="M1070.3 298.714L1093.17 264.779C1093.17 264.779 1087.31 298.253 1066.96 305.211L1070.3 298.714Z" fill="#FFBB02"/>
<path id="Vector_33" d="M1086 261.902C1086 261.902 1112.58 244.037 1113.54 241.15C1113.54 241.15 1100.03 266.171 1074.92 270.59L1086 261.902Z" fill="#FFBB02"/>
<path id="Vector_34" d="M1087.59 253.863C1087.59 253.863 1118.11 225.288 1125.9 225.316C1125.9 225.316 1100.73 226.435 1086.86 252.34L1087.59 253.863Z" fill="#FFBB02"/>
<path id="Vector_35" d="M1064.07 325.154L1065.18 325.295C1070.91 281.582 1079.28 255.715 1088.72 252.546L1088.35 251.512C1078.34 254.897 1069.92 280.369 1064.07 325.154Z" fill="#444053"/>
<path id="Vector_36" d="M1055.63 429.693L1057.31 429.824C1057.67 425.744 1057.94 421.569 1058.12 417.404C1059.72 381.222 1062.21 347.993 1065.47 323.085L1064.5 321.91C1061.23 346.874 1058.04 381.1 1056.44 417.338C1056.26 421.475 1055.99 425.631 1055.63 429.693Z" fill="#444053"/>
<path id="Vector_37" d="M927.019 627.666C927.308 627.544 956.883 614.681 987.578 584.01C1005.56 566.046 1020.5 545.417 1031.85 522.892C1046.04 494.75 1054.69 460.167 1057.59 426.571L1055.84 427.37C1049.33 502.78 1014.07 554.307 986.043 582.373C955.647 612.772 926.401 625.504 926.111 625.626L927.019 627.666Z" fill="#444053"/>
<path id="Vector_38" d="M1003.6 80.139H75.8153C73.6232 80.139 71.521 80.987 69.9709 82.4964C68.4209 84.0058 67.5501 86.0531 67.5501 88.1877V111.638H1011.86V88.1877C1011.86 86.0531 1010.99 84.0058 1009.44 82.4964C1007.89 80.987 1005.79 80.139 1003.6 80.139V80.139Z" fill="#3F3D56"/>
<path id="Vector_39" d="M67.5501 111.638V639.354C67.5501 643.658 69.306 647.786 72.4313 650.829C75.5567 653.873 79.7956 655.583 84.2156 655.583H995.196C999.616 655.583 1003.86 653.873 1006.98 650.829C1010.11 647.786 1011.86 643.658 1011.86 639.354V111.638H67.5501Z" fill="white"/>
<path id="Vector_40" opacity="0.8" d="M82.5066 99.4145C84.6396 99.4145 86.3688 97.7306 86.3688 95.6534C86.3688 93.5762 84.6396 91.8923 82.5066 91.8923C80.3735 91.8923 78.6443 93.5762 78.6443 95.6534C78.6443 97.7306 80.3735 99.4145 82.5066 99.4145Z" fill="#FA5959"/>
<path id="Vector_41" opacity="0.8" d="M93.1277 99.4145C95.2607 99.4145 96.9899 97.7306 96.9899 95.6534C96.9899 93.5762 95.2607 91.8923 93.1277 91.8923C90.9946 91.8923 89.2654 93.5762 89.2654 95.6534C89.2654 97.7306 90.9946 99.4145 93.1277 99.4145Z" fill="#FED253"/>
<path id="Vector_42" opacity="0.8" d="M103.749 99.4145C105.882 99.4145 107.611 97.7306 107.611 95.6534C107.611 93.5762 105.882 91.8923 103.749 91.8923C101.616 91.8923 99.8865 93.5762 99.8865 95.6534C99.8865 97.7306 101.616 99.4145 103.749 99.4145Z" fill="#8CCF4D"/>
<path id="Vector_43" opacity="0.05" d="M914.254 199.628H155.329V524.603H914.254V199.628Z" fill="black"/>
<path id="Vector_44" d="M908.461 202.092H161.122V519.902H908.461V202.092Z" fill="#3F3D56"/>
<path id="Vector_45" d="M809.009 344.072H500.031V376.041H809.009V344.072Z" fill="white"/>
<path id="Vector_46" d="M809.009 402.369H742.385V434.338H809.009V402.369Z" fill="#FFBB02"/>
<path id="Vector_47" d="M888.657 473.961C888.63 472.824 888.484 471.693 888.223 470.585C887.354 467.407 885.394 463.561 882.169 462.602C878.839 461.609 875.623 460.286 872.571 458.653C871.992 448.573 874.367 438.259 871.779 428.489C870.814 424.916 869.221 421.494 868.796 417.836C868.265 413.285 869.539 408.433 867.676 404.24C866.208 400.93 862.983 398.598 859.517 397.376C856.05 396.153 852.314 395.824 848.635 395.495C844 395.129 828.996 393.399 823.762 397.432C823.401 397.705 823.077 398.021 822.797 398.373V398.373C822.681 398.528 822.578 398.691 822.488 398.861L822.44 398.937C822.335 399.133 822.247 399.337 822.179 399.548V399.548C822.106 399.779 822.051 400.014 822.015 400.253C822.015 400.328 822.015 400.404 822.015 400.479C822.015 400.554 822.015 400.808 822.015 400.977V401.231C822.015 401.4 822.015 401.569 822.015 401.748C822.015 401.927 822.015 401.88 822.015 401.946C822.082 402.792 822.208 403.638 822.208 404.475C822.218 404.892 822.179 405.308 822.092 405.716C821.77 406.825 821.226 407.861 820.489 408.762V408.762L820.315 409.007C820.209 409.157 820.103 409.298 820.006 409.449C819.91 409.599 819.832 409.712 819.755 409.844C819.678 409.975 819.601 410.06 819.533 410.182C819.44 410.337 819.356 410.497 819.282 410.662C819.282 410.756 819.176 410.84 819.137 410.934C819.017 411.189 818.92 411.453 818.848 411.724C818.622 412.541 818.602 413.399 818.79 414.225C819.05 415.28 819.498 416.283 820.113 417.187C820.354 417.573 820.615 417.949 820.885 418.325L821.561 419.218C821.435 420.091 821.367 420.97 821.358 421.851C821.359 424.795 822.045 427.701 823.367 430.35C824.688 432.998 826.609 435.32 828.986 437.14C829.368 441.111 829.326 445.109 828.86 449.072C828.774 449.899 828.667 450.736 828.551 451.563C828.436 452.391 828.349 452.936 828.233 453.623C826.82 453.82 825.38 453.714 824.013 453.312C823.383 453.039 822.738 452.797 822.082 452.588C819.273 451.902 816.405 454.629 813.624 453.801C813.624 453.933 813.547 454.055 813.498 454.177C812.918 453.826 812.251 453.634 811.567 453.623C809.916 453.547 808.574 452.381 807.377 451.281L803.698 447.906C803.458 447.699 803.244 447.466 803.061 447.21C802.863 446.844 802.714 446.456 802.617 446.053C801.999 444.107 800.502 442.556 799.054 441.079C798.779 440.743 798.415 440.486 798.001 440.337C797.841 440.313 797.679 440.313 797.519 440.337C797.42 440.205 797.314 440.08 797.2 439.961C796.95 439.681 796.682 439.417 796.399 439.171C794.641 437.591 794.467 436.237 792.942 434.469C791.611 432.784 790.405 431.008 789.331 429.157C789.205 428.17 789.031 427.154 788.819 426.129C788.332 423.783 787.624 421.485 786.704 419.265L784.773 415.1L784.551 415.316C783.151 413.285 781.655 412.176 780.312 412.439C778.063 412.89 776.952 417.14 777.31 422.697L778.082 428.339C778.082 428.48 778.15 428.621 778.188 428.762C778.049 429.431 777.978 430.111 777.976 430.793C777.976 431.583 778.729 432.166 779.125 432.871C779.758 433.826 780.094 434.94 780.09 436.077C780.042 436.482 779.917 436.867 779.897 437.262C779.95 438.145 780.265 438.995 780.805 439.707L785.633 447.605L786.598 449.26L786.656 449.335C786.961 449.912 787.405 450.409 787.95 450.783C788.139 452.761 788.678 454.692 789.543 456.49C789.707 456.848 789.891 457.186 790.084 457.525C791.382 459.603 792.91 461.535 794.641 463.289L796.939 465.799C799.208 468.263 801.477 470.736 803.94 473.011C804.821 473.924 805.886 474.65 807.068 475.145C807.647 475.371 808.277 475.443 808.894 475.356C809.511 475.268 810.093 475.024 810.582 474.647C810.582 475.813 810.582 476.979 810.582 478.145C810.941 478.166 811.287 478.281 811.585 478.476C811.883 478.671 812.122 478.94 812.278 479.256C812.433 479.571 812.499 479.921 812.47 480.269C812.44 480.618 812.315 480.952 812.108 481.238C810.08 486.306 808.033 491.421 804.963 495.963C807.13 497.212 809.14 498.705 810.949 500.41C812.124 501.678 813.168 503.054 814.068 504.519C814.155 505.215 814.223 505.901 814.261 506.588C814.976 517.796 810.525 528.919 806.537 539.601C805.388 542.628 804.133 545.797 804.229 548.947C803.472 549.401 802.75 549.907 802.066 550.461C802.858 552.473 802.549 554.269 802.462 556.422C802.433 557.713 802.162 558.988 801.661 560.183C801.241 561.012 800.777 561.818 800.27 562.6C797.77 566.897 797.219 572.002 796.717 576.911C796.418 579.872 797.596 583.492 796.215 586.144C793.83 590.695 791.716 595.547 791.387 600.605C791.376 601.743 791.227 602.877 790.943 603.981C790.644 604.921 790.113 605.72 789.842 606.642C789.564 607.876 789.499 609.147 789.649 610.403C789.833 614.91 789.145 619.41 787.622 623.67C786.415 627.027 785.082 630.619 786.028 634.069C783.699 636.452 782.26 639.529 781.944 642.804C781.919 643.642 781.816 644.476 781.635 645.296C781.34 646.134 780.952 646.938 780.477 647.694C778.533 651.141 777.623 655.051 777.85 658.977C774.954 662.804 773.505 667.524 772.646 672.216C771.787 676.908 771.41 681.685 770.309 686.32C768.842 692.451 766.186 698.647 765.665 704.928C762.537 706.874 761.185 710.645 760.586 714.208C759.988 717.772 759.891 721.514 758.356 724.805C757.564 726.516 756.425 728.049 755.671 729.798C755.143 731.19 754.755 732.63 754.513 734.095C754.049 736.389 753.644 738.947 754.214 741.147C753.394 741.992 752.439 742.7 751.384 743.244C751.539 742.661 751.664 742.078 751.771 741.486C749.28 743.686 744.761 742.915 742.772 745.557C742.175 746.409 741.941 747.453 742.122 748.469C742.302 749.486 742.881 750.394 743.737 751.001C744.36 751.37 745.033 751.652 745.736 751.838C750.564 753.342 755.527 754.856 760.49 754.057C761.076 753.995 761.644 753.819 762.16 753.54C762.806 753.077 763.337 752.479 763.715 751.791C764.458 750.644 765.201 749.497 765.935 748.349C767.714 748.866 769.523 749.278 771.352 749.581C771.536 751.086 771.671 752.59 771.738 754.095C772.704 754.283 773.998 754.339 774.451 753.465C774.589 753.134 774.645 752.776 774.616 752.421C774.616 751.753 774.712 750.869 774.77 749.967H774.963C777.909 750.083 780.84 749.505 783.508 748.284C782.475 739.953 785.884 731.81 788.838 723.931C791.957 715.638 794.632 707.194 797.325 698.75C799.257 692.808 801.39 687.053 803.283 681.102C805.665 673.579 808.056 666.057 810.457 658.535C811.5 655.225 812.552 651.953 813.75 648.662C816.27 642.003 819.261 635.522 822.7 629.265C823.666 627.488 824.631 625.729 825.423 623.886C826.389 621.639 827.074 619.288 827.847 616.966C829.53 612.2 831.556 607.557 833.91 603.069C833.978 602.947 834.026 602.834 834.094 602.721C834.876 605.833 835.658 608.992 836.179 612.124C836.885 615.963 836.941 619.889 836.344 623.745C835.88 626.369 835.001 628.964 835.108 631.625C835.252 635.301 837.27 638.639 838.265 642.184C838.906 644.837 839.268 647.546 839.346 650.27C839.617 654.501 841.973 659.25 840.312 663.171C835.146 675.592 837.647 689.62 834.702 702.662C833.186 709.357 828.542 715.647 828.909 722.492C829.166 727.35 829.604 732.196 830.222 737.029C830.371 738.554 830.779 740.044 831.429 741.439C831.814 742.172 832.256 742.876 832.752 743.545C832.327 743.705 831.97 744.128 831.661 745.021C830.869 747.372 831.661 750.286 833.804 751.603C834.677 752.058 835.619 752.375 836.595 752.543C837.907 752.907 839.266 753.09 840.631 753.088C841.055 753.066 841.478 753.016 841.895 752.938C843.388 753.549 844.912 754.082 846.462 754.536C846.462 754.922 846.54 755.307 846.588 755.693C846.591 755.894 846.637 756.093 846.723 756.276C846.81 756.459 846.935 756.622 847.09 756.755C847.331 756.865 847.598 756.91 847.863 756.887H853.106C853.106 756.464 853.106 756.031 853.106 755.608C853.705 755.669 854.312 755.607 854.886 755.426C855.459 755.244 855.988 754.948 856.437 754.555C856.901 753.98 857.231 753.312 857.402 752.6C858.831 747.879 860.251 743.156 861.66 738.43C863.351 733.205 864.054 727.726 863.736 722.257C861.873 704.928 865.967 687.542 864.634 670.166C863.832 659.722 864.384 649.222 866.276 638.912C866.71 636.58 867.241 634.21 867.434 631.888C867.859 627.506 867.338 623.078 867.656 618.724C867.763 617.201 867.975 615.687 868.168 614.173C869.491 604.778 870.184 595.308 870.244 585.824C870.215 582.682 870.015 579.543 869.645 576.422C870.652 576.172 871.566 575.65 872.281 574.917C873.141 573.826 872.919 572.294 872.909 570.902C872.909 567.574 874.348 564.433 875.506 561.293C876.993 556.961 878.212 552.546 879.156 548.072C880.154 544.467 880.698 540.757 880.778 537.024C880.778 536.648 880.759 536.272 880.72 535.896C881.084 535.65 881.388 535.329 881.609 534.956C881.861 534.405 882.017 533.817 882.072 533.216C882.42 530.819 882.777 528.412 883.125 526.004C883.382 524.281 883.636 522.56 883.887 520.842L886.958 499.978C887.219 498.163 887.489 496.358 887.75 494.552L888.551 489.155C888.638 488.516 888.734 487.877 888.802 487.275C891.158 483.439 888.908 478.323 888.657 473.961ZM863.041 552.078C861.902 549.445 860.84 546.747 861.11 543.907H861.004C861.258 543.033 861.214 542.103 860.878 541.256C860.579 540.569 860.057 539.986 859.739 539.3C859.396 538.462 859.22 537.569 859.217 536.667C858.978 530.948 859.441 525.222 860.598 519.611C860.724 518.952 860.859 518.285 860.984 517.627C861.389 517.399 861.76 517.117 862.085 516.79C862.593 516.226 863.013 515.592 863.331 514.909C864.422 512.775 865.416 510.603 866.334 508.393C866.633 507.679 867.067 506.851 867.811 506.673C867.656 512.173 868.236 517.786 865.938 522.751C865.501 523.552 865.176 524.405 864.972 525.29C864.76 526.691 865.358 528.111 865.146 529.502C865.04 530.226 864.721 530.894 864.596 531.608C864.5 531.959 864.502 532.328 864.6 532.678C864.699 533.029 864.89 533.347 865.156 533.602C865.284 533.689 865.423 533.759 865.571 533.809C865.513 534.185 865.465 534.57 865.426 534.937C865.349 535.708 865.31 536.432 865.262 536.883C865.04 539.183 864.953 541.494 865.001 543.804C865.001 546.295 865.098 548.787 865.059 551.326C865.095 552.055 864.97 552.782 864.692 553.46C864.501 553.81 864.253 554.127 863.958 554.401C863.678 553.554 863.369 552.811 863.041 552.078Z" fill="url(#paint0_linear)"/>
<path id="Vector_48" d="M786.822 442.978C789.769 442.39 790.771 435.328 789.062 427.203C787.352 419.079 783.578 412.97 780.632 413.558C777.685 414.145 776.683 421.208 778.392 429.332C780.102 437.457 783.876 443.566 786.822 442.978Z" fill="#FBBEBE"/>
<path id="Vector_49" d="M831.815 745.2C831.023 747.532 831.815 750.446 833.959 751.716C834.827 752.166 835.762 752.484 836.73 752.656C838.04 753.016 839.395 753.197 840.756 753.192C842.426 753.117 844.029 752.477 845.7 752.252C845.892 752.204 846.096 752.231 846.269 752.327C846.353 752.414 846.416 752.519 846.452 752.632C846.489 752.746 846.499 752.867 846.482 752.985C846.5 753.91 846.571 754.833 846.694 755.749C846.696 755.951 846.741 756.15 846.828 756.333C846.914 756.517 847.04 756.68 847.196 756.812C847.437 756.921 847.704 756.967 847.969 756.944H853.202C853.321 752.466 852.817 747.994 851.705 743.648C851.633 743.316 851.502 742.998 851.319 742.708C850.875 742.234 850.292 741.906 849.649 741.768C848.369 741.249 846.987 741.015 845.603 741.081C843.913 741.298 842.504 742.36 841.065 743.244C839.626 744.128 837.666 744.908 835.919 744.457C834.171 744.006 832.713 742.586 831.815 745.2Z" fill="#3F3D56"/>
<path id="Vector_50" d="M754.976 741.072C753.505 742.606 751.701 743.801 749.695 744.57L748.806 744.983C748.683 745.029 748.579 745.111 748.507 745.218C748.49 745.292 748.49 745.367 748.507 745.441C748.523 745.514 748.556 745.582 748.604 745.641C749.343 746.755 750.435 747.603 751.714 748.056C752.994 748.509 754.39 748.543 755.691 748.152C756.266 748.012 756.798 747.741 757.245 747.362C757.981 746.512 758.403 745.446 758.443 744.335C758.735 743.188 758.685 741.984 758.298 740.865C756.956 737.922 756.463 739.257 754.976 741.072Z" fill="#FBBEBE"/>
<path id="Vector_51" d="M775.04 752.656C775.07 753.012 775.014 753.369 774.876 753.7C774.423 754.565 773.158 754.518 772.173 754.33C772.024 751.139 771.627 747.965 770.985 744.833C769.112 744.748 767.76 746.478 766.756 748.03L764.168 752.026C763.794 752.714 763.266 753.312 762.623 753.775C762.106 754.05 761.539 754.226 760.953 754.292C756.009 755.091 751.018 753.577 746.248 752.073C745.545 751.889 744.872 751.611 744.249 751.246C743.398 750.637 742.822 749.731 742.642 748.718C742.462 747.704 742.692 746.663 743.283 745.811C745.282 743.178 749.772 743.93 752.263 741.749C752.003 743.284 751.576 744.787 750.989 746.234C754.32 745.745 756.56 742.774 759.244 740.79C759.918 740.233 760.731 739.857 761.6 739.699C762.251 739.646 762.906 739.713 763.531 739.896C766.626 740.655 769.522 742.043 772.028 743.968C773.042 744.748 774.625 745.848 775.069 747.052C775.543 748.491 775.04 751.123 775.04 752.656Z" fill="#3F3D56"/>
<path id="Vector_52" d="M841.461 442.424C852.478 442.424 861.409 433.727 861.409 422.998C861.409 412.269 852.478 403.572 841.461 403.572C830.444 403.572 821.513 412.269 821.513 422.998C821.513 433.727 830.444 442.424 841.461 442.424Z" fill="#FBBEBE"/>
<path id="Vector_53" d="M880.759 537.692C880.678 541.406 880.137 545.096 879.146 548.684C878.202 553.139 876.983 557.535 875.497 561.847C874.348 564.979 872.909 568.119 872.919 571.438C872.919 572.82 873.15 574.353 872.281 575.444C871.508 576.209 870.532 576.753 869.462 577.014C868.928 577.152 868.435 577.41 868.022 577.768C867.61 578.125 867.289 578.573 867.087 579.073C866.18 577.754 865.502 576.299 865.078 574.767C863.347 569.601 861.738 564.408 860.251 559.186C860.115 558.886 860.056 558.558 860.079 558.23C860.103 557.902 860.208 557.585 860.386 557.306C860.631 557.098 860.917 556.942 861.226 556.845C862.215 556.452 863.122 555.885 863.9 555.172C864.266 554.856 864.567 554.476 864.789 554.053C865.069 553.379 865.198 552.654 865.165 551.928C865.165 549.436 865.165 546.954 865.098 544.462C865.057 542.161 865.147 539.86 865.368 537.57C865.368 537.118 865.455 536.394 865.532 535.623C865.677 534.147 865.967 532.436 866.787 531.862C868.014 531.063 871.683 532.135 873.073 532.323C875.468 532.643 877.901 533.019 880.238 533.461C880.577 534.847 880.752 536.267 880.759 537.692Z" fill="#3F3D56"/>
<path id="Vector_54" d="M800.212 444.747C799.44 446.251 797.586 446.975 796.157 447.925L791.262 451.197C790.935 451.484 790.551 451.703 790.135 451.842C789.718 451.981 789.277 452.037 788.838 452.005C788.44 451.862 788.075 451.643 787.765 451.36C787.455 451.078 787.206 450.738 787.033 450.36C787.036 450.335 787.036 450.31 787.033 450.285L786.019 448.63L781.191 440.75C780.654 440.045 780.342 439.201 780.293 438.325C780.293 437.92 780.438 437.544 780.477 437.14C780.49 436.004 780.153 434.891 779.511 433.943C779.125 433.238 778.352 432.655 778.372 431.865C778.335 430.827 778.519 429.793 778.912 428.828C779.419 427.935 780.146 427.179 781.027 426.628C781.481 426.308 781.944 426.007 782.427 425.687C782.683 425.517 782.967 425.39 783.267 425.311C784.068 425.151 784.86 425.8 785.671 425.828C789.157 428.104 790.499 432.41 793.241 435.513C794.786 437.281 794.941 438.635 796.688 440.214C796.968 440.459 797.239 440.722 797.499 440.995C797.845 441.362 798.137 441.773 798.368 442.217C798.687 443.026 800.608 443.976 800.212 444.747Z" fill="#3F3D56"/>
<path id="Vector_55" d="M834.451 442.433C835.89 445.395 837.01 448.649 836.594 451.902C836.509 452.783 836.222 453.635 835.754 454.394C834.364 456.472 831.448 456.848 828.909 456.97C828.374 456.926 827.835 456.987 827.324 457.148C826.814 457.31 826.341 457.569 825.935 457.91C825.596 458.39 825.429 458.967 825.463 459.549C825.496 460.131 825.726 460.685 826.118 461.126C826.934 461.974 827.948 462.619 829.073 463.007C833.09 464.727 837.425 466.147 841.789 465.752C843.817 465.564 845.787 464.99 847.805 464.699C850.005 464.467 852.215 464.348 854.428 464.342C857.055 464.248 859.671 463.994 862.288 463.74L869.221 463.072C869.599 463.078 869.967 462.947 870.254 462.706C870.765 462.123 870.109 461.267 869.472 460.825C865.793 458.174 861.11 456.349 859.015 452.363C858.049 450.482 857.75 448.244 857.035 446.213C856.321 444.182 855.181 442.349 854.737 440.28C854.5 438.466 854.394 436.637 854.419 434.808C854.443 432.964 853.753 431.178 852.487 429.806C851.107 428.555 849.108 428.235 847.235 428.16C842.62 427.963 837.705 429.035 834.432 432.203C833.553 433.059 832.8 434.084 831.892 434.855C830.985 435.626 829.749 435.852 830.347 436.867C830.946 437.883 832.124 438.513 832.761 439.406C833.406 440.37 833.971 441.382 834.451 442.433V442.433Z" fill="#FBBEBE"/>
<path id="Vector_56" d="M873.778 469.786C872.56 477.026 870.58 484.125 867.869 490.97C866.506 494.061 865.345 497.233 864.393 500.467C863.649 503.382 863.794 506.503 863.109 509.428C862.259 513.066 861.409 516.715 860.724 520.382C859.574 525.981 859.113 531.695 859.353 537.4C859.355 538.299 859.532 539.189 859.874 540.024C860.193 540.701 860.704 541.284 861.004 541.98C861.228 542.591 861.319 543.24 861.273 543.888C861.226 544.535 861.043 545.166 860.733 545.741C860.238 546.817 859.566 547.808 858.744 548.674C849.745 551.288 840.119 550.433 830.743 550.987C822.102 551.495 813.363 553.225 804.847 551.787C803.882 548.025 805.494 544.086 806.875 540.419C810.882 529.766 815.314 518.67 814.599 507.509C814.524 506.208 814.373 504.911 814.145 503.626C812.745 495.718 814.271 487.529 816.714 479.866C818.23 475.089 818.162 470.002 817.815 465.028C817.642 463.413 817.62 461.786 817.747 460.167C817.887 458.514 818.517 456.936 819.562 455.625C819.562 455.56 819.649 455.494 819.697 455.428C819.746 455.362 820.122 455.372 820.421 455.428C820.498 455.46 820.58 455.476 820.663 455.476C820.746 455.476 820.828 455.46 820.904 455.428L821.011 455.362C821.051 455.334 821.1 455.319 821.15 455.319C821.201 455.319 821.25 455.334 821.291 455.362C821.513 455.494 821.638 455.945 822.121 456.03C822.834 456.135 823.553 456.201 824.274 456.227C825.141 456.252 826.003 456.372 826.842 456.584H826.958C828.214 456.791 829.503 456.684 830.705 456.274C831.504 456.08 832.276 455.789 833.003 455.409C833.215 455.183 834.548 454.977 834.818 454.817C835.697 454.3 835.503 451.874 835.687 450.877C835.788 449.877 836.032 448.896 836.411 447.962C836.851 447.273 837.458 446.699 838.178 446.291C838.898 445.882 839.711 445.653 840.544 445.621C842.206 445.582 843.868 445.728 845.497 446.053C849.098 446.552 852.787 446.467 856.321 447.276C858.097 447.68 860.038 448.291 861.67 447.502C862.114 447.605 862.182 447.981 862.182 448.442C862.14 448.88 862.049 449.311 861.911 449.73C861.293 452.325 863.389 454.713 865.32 456.594C866.136 457.48 867.098 458.227 868.168 458.804C869.134 459.236 870.099 459.415 871.065 459.885C871.847 460.291 872.511 460.883 872.996 461.606C873.552 462.434 873.927 463.366 874.097 464.342C874.304 466.161 874.196 468.001 873.778 469.786Z" fill="#3F3D56"/>
<path id="Vector_57" opacity="0.1" d="M873.778 469.786C872.56 477.026 870.58 484.125 867.869 490.97C866.506 494.061 865.345 497.233 864.393 500.467C863.649 503.382 863.794 506.503 863.109 509.428C862.259 513.066 861.409 516.715 860.724 520.382C860.521 520.494 860.309 520.598 860.096 520.692C858.895 521.251 857.622 521.649 856.311 521.877C853.957 522.154 851.574 522.078 849.243 521.651L835.465 519.855C829.961 519.131 824.1 518.257 820.016 514.627C817.747 512.634 816.26 510.001 814.628 507.462C814.553 506.161 814.402 504.864 814.174 503.579C812.774 495.671 814.3 487.482 816.743 479.819C818.259 475.042 818.191 469.955 817.843 464.981C817.671 463.366 817.649 461.739 817.776 460.12C817.916 458.467 818.546 456.889 819.591 455.578C819.873 455.498 820.16 455.435 820.45 455.39V455.39C820.645 455.352 820.842 455.327 821.039 455.315H821.319C821.645 455.316 821.969 455.354 822.285 455.428C822.943 455.632 823.588 455.874 824.216 456.152H824.332C825.16 456.418 826.029 456.538 826.9 456.509C828.175 456.509 829.488 456.312 830.763 456.227C832.337 455.988 833.948 456.269 835.339 457.026C836.237 457.729 837.088 458.486 837.888 459.292C838.854 460.031 839.941 460.607 841.104 460.994C849.415 464.084 858.636 463.895 866.807 460.468C867.592 460.033 868.482 459.812 869.385 459.828C870.052 459.956 870.683 460.218 871.239 460.599C871.818 460.929 872.388 461.248 872.977 461.54C873.533 462.368 873.908 463.3 874.077 464.276C874.299 466.116 874.197 467.979 873.778 469.786V469.786Z" fill="black"/>
<path id="Vector_58" d="M882.188 463.561C878.343 462.418 874.649 460.84 871.181 458.86C870.624 458.481 869.993 458.219 869.327 458.089C868.422 458.078 867.53 458.299 866.739 458.728C858.572 462.155 849.354 462.344 841.046 459.255C839.885 458.864 838.799 458.289 837.83 457.553C837.028 456.749 836.177 455.992 835.281 455.287C832.105 453.284 827.711 455.635 824.158 454.347C823.528 454.073 822.883 453.831 822.227 453.623C819.417 452.936 816.559 455.663 813.798 454.836C812.77 457.555 812.011 460.363 811.529 463.223C811.136 466.506 810.926 469.809 810.901 473.114C810.901 475.098 810.805 477.082 810.901 479.066C811.241 479.121 811.566 479.243 811.856 479.426C812.145 479.609 812.392 479.848 812.581 480.129C812.708 480.456 812.76 480.807 812.733 481.156C812.706 481.505 812.602 481.845 812.427 482.15C810.409 487.2 808.362 492.305 805.301 496.828C807.458 498.08 809.46 499.569 811.268 501.266C814.647 504.745 816.308 509.625 819.958 512.841C824.071 516.461 829.932 517.345 835.407 518.059L849.185 519.855C851.519 520.28 853.905 520.36 856.263 520.09C857.57 519.858 858.84 519.456 860.038 518.896C860.821 518.577 861.535 518.118 862.143 517.542C862.652 516.979 863.072 516.345 863.389 515.661C864.48 513.536 865.474 511.364 866.392 509.164C866.71 508.384 867.193 507.472 868.062 507.406C873.179 502.911 878.007 498.304 883.125 493.81C885.181 492.15 887.026 490.256 888.619 488.168C891.158 484.51 888.85 479.33 888.619 474.91C888.59 473.78 888.445 472.655 888.184 471.554C887.354 468.347 885.403 464.511 882.188 463.561Z" fill="#FFBB02"/>
<path id="Vector_59" opacity="0.1" d="M800.212 444.747C799.44 446.251 797.586 446.975 796.157 447.925L791.262 451.197C790.935 451.484 790.551 451.703 790.135 451.842C789.718 451.981 789.277 452.037 788.838 452.005C788.44 451.862 788.075 451.643 787.765 451.36C787.455 451.078 787.206 450.738 787.033 450.36C787.033 450.144 787.033 449.909 787.033 449.683C786.995 448.922 787.1 448.16 787.342 447.436C787.821 446.372 788.564 445.442 789.504 444.728C791.322 443.051 793.484 441.77 795.848 440.967C796.217 440.827 796.617 440.788 797.007 440.854C797.157 440.892 797.3 440.952 797.432 441.032C797.777 441.399 798.07 441.811 798.301 442.255C798.687 443.026 800.608 443.976 800.212 444.747Z" fill="black"/>
<path id="Vector_60" d="M811.741 454.657C810.1 454.582 808.758 453.425 807.56 452.325L803.901 449.015C803.656 448.814 803.441 448.579 803.264 448.32C803.066 447.954 802.917 447.565 802.819 447.163C802.044 445.264 800.828 443.565 799.266 442.198C798.994 441.862 798.629 441.607 798.214 441.465C797.821 441.394 797.416 441.434 797.045 441.578C794.681 442.379 792.519 443.662 790.702 445.339C789.762 446.054 789.019 446.984 788.539 448.047C788.296 448.771 788.191 449.533 788.23 450.294C788.253 452.778 788.826 455.229 789.91 457.478C790.074 457.826 790.258 458.174 790.451 458.512C791.739 460.586 793.261 462.513 794.989 464.257L797.287 466.758C799.546 469.222 801.806 471.685 804.258 473.951C805.137 474.864 806.203 475.588 807.386 476.076C807.981 476.312 808.63 476.385 809.264 476.285C809.897 476.186 810.491 475.918 810.978 475.512C811.441 474.991 811.789 474.383 812.002 473.726C813.489 469.965 814.899 466.053 814.985 462C815.006 460.377 814.935 458.755 814.773 457.139C814.628 455.428 813.383 454.76 811.741 454.657Z" fill="#FFBB02"/>
<path id="Vector_61" d="M870.254 586.294C870.198 595.753 869.508 605.197 868.187 614.568C867.994 616.082 867.782 617.596 867.676 619.11C867.357 623.501 867.879 627.911 867.454 632.273C867.232 634.634 866.729 636.975 866.305 639.278C864.418 649.56 863.866 660.032 864.663 670.448C865.996 687.777 861.911 705.116 863.765 722.398C863.99 725.759 863.799 729.133 863.196 732.45C862.85 734.507 862.35 736.537 861.699 738.524C860.289 743.231 858.873 747.933 857.451 752.628C857.283 753.342 856.953 754.01 856.485 754.583C855.992 754.998 855.415 755.306 854.79 755.486C854.166 755.666 853.509 755.714 852.864 755.627C847.293 755.458 842.05 753.117 836.99 750.832C836.409 750.608 835.87 750.29 835.397 749.891C834.345 748.829 834.432 747.155 833.968 745.754C833.505 744.353 832.25 743.037 831.535 741.598C830.948 740.238 830.592 738.792 830.483 737.32C829.839 732.506 829.401 727.673 829.169 722.821C828.803 715.995 833.437 709.714 834.963 703.076C837.859 690.025 835.407 676.034 840.553 663.65C842.175 659.739 839.82 655 839.588 650.787C839.504 648.07 839.142 645.367 838.506 642.72C837.541 639.184 835.503 635.856 835.359 632.189C835.252 629.537 836.131 626.952 836.585 624.338C837.187 620.491 837.131 616.573 836.421 612.744C835.909 609.585 835.127 606.426 834.345 603.341L834.171 603.689C831.818 608.167 829.795 612.802 828.117 617.558C827.345 619.862 826.669 622.213 825.703 624.45C824.911 626.331 823.936 628.052 822.98 629.819C819.552 636.053 816.568 642.509 814.049 649.142C812.852 652.395 811.799 655.724 810.756 658.986L803.602 681.553C801.67 687.486 799.556 693.222 797.663 699.145C794.989 707.608 792.314 715.995 789.205 724.269C786.309 732.12 782.861 740.254 783.895 748.547C781.232 749.765 778.308 750.343 775.369 750.23C770.392 749.801 765.51 748.648 760.885 746.807C759.041 746.14 757.129 745.388 755.884 743.911C753.74 741.363 754.271 737.63 754.918 734.386C755.162 732.924 755.55 731.488 756.077 730.099C756.811 728.369 758.008 726.836 758.761 725.125C760.277 721.843 760.374 718.129 760.972 714.566C761.571 711.002 762.903 707.241 766.032 705.304C766.563 699.042 769.209 692.864 770.667 686.743C771.767 682.108 772.134 677.34 773.003 672.639C773.872 667.938 775.272 663.236 778.188 659.428C777.958 655.502 778.868 651.591 780.815 648.145C781.285 647.388 781.67 646.585 781.964 645.747C782.144 644.931 782.247 644.1 782.273 643.265C782.592 639.998 784.026 636.929 786.347 634.549C785.382 631.117 786.724 627.535 787.931 624.206C789.451 619.959 790.139 615.471 789.958 610.976C789.809 609.721 789.871 608.451 790.142 607.215C790.412 606.275 790.943 605.476 791.252 604.573C791.528 603.468 791.673 602.335 791.687 601.198C792.063 596.111 794.178 591.315 796.514 586.774C797.905 584.122 796.727 580.521 797.016 577.569C797.519 572.66 798.069 567.583 800.57 563.305C801.033 562.496 801.535 561.725 801.95 560.888C802.454 559.694 802.725 558.418 802.752 557.127C802.839 554.974 803.148 553.188 802.356 551.185C807.522 547.001 814.57 545.825 821.291 545.543C828.011 545.261 834.808 545.854 841.384 544.462C843.315 544.039 845.246 543.456 847.283 543.174C851.908 542.516 856.601 543.54 861.168 544.556C860.849 547.377 861.911 550.085 863.099 552.708C867.736 563.334 870.167 574.749 870.254 586.294V586.294Z" fill="#33313F"/>
<path id="Vector_62" opacity="0.1" d="M847.515 588.448L836.421 612.744C835.909 609.585 835.127 606.425 834.345 603.341L834.171 603.689V603.182L840.215 590.234L847.515 588.448Z" fill="black"/>
<path id="Vector_63" opacity="0.1" d="M880.759 537.692C880.119 538.158 879.355 538.436 878.557 538.491C877.334 538.533 876.113 538.371 874.946 538.012L866.256 535.896C865.984 535.831 865.719 535.739 865.465 535.623C865.609 534.147 865.899 532.436 866.72 531.862C867.946 531.063 871.615 532.135 873.006 532.323C875.4 532.643 877.833 533.019 880.17 533.461C880.532 534.844 880.73 536.264 880.759 537.692V537.692Z" fill="black"/>
<path id="Vector_64" d="M888.107 481.746C888.29 482.526 888.551 483.297 888.705 484.087C888.965 486.025 888.897 487.991 888.503 489.908L887.711 495.286L886.919 500.692L883.858 521.501L883.105 526.653L882.043 533.846C881.993 534.445 881.836 535.03 881.58 535.576C881.263 536.087 880.822 536.514 880.294 536.818C879.767 537.121 879.17 537.292 878.557 537.316C877.335 537.354 876.114 537.192 874.946 536.836L866.256 534.711C865.875 534.645 865.513 534.501 865.194 534.288C864.929 534.035 864.737 533.719 864.639 533.37C864.54 533.021 864.539 532.654 864.634 532.304C864.76 531.59 865.078 530.922 865.185 530.207C865.397 528.816 864.798 527.387 865.011 526.004C865.219 525.124 865.544 524.274 865.976 523.475C868.873 517.241 867.193 509.963 868.178 503.194C869.064 497.865 871.375 492.858 874.879 488.676C877.041 486.036 879.524 483.661 882.275 481.605C883.356 480.787 885.075 479.104 886.436 478.784C888.184 478.427 887.817 480.561 888.107 481.746Z" fill="#FFBB02"/>
<path id="Vector_65" d="M822.343 400.751C821.706 402.726 822.7 404.898 822.246 406.91C821.754 409.129 819.61 410.671 819.002 412.9C818.037 416.294 820.991 419.388 823.154 422.208C831.168 432.683 830.116 447.182 827.373 459.96C825.167 470.212 822.116 480.274 818.249 490.049C817.042 493.086 815.71 496.17 813.334 498.445C817.776 497.204 822.497 495.954 826.949 497.157C832.587 498.68 837.454 504.012 843.17 502.799C846.607 502.056 849.021 499.085 852.111 497.439C857.904 494.402 864.885 496.311 871.345 497.289C872.737 497.608 874.193 497.537 875.545 497.082C876.578 496.541 877.455 495.755 878.094 494.797C880.977 491.195 882.703 486.845 883.057 482.291C883.21 480.024 882.866 477.751 882.049 475.622C881.232 473.494 879.959 471.559 878.316 469.946C876.945 468.686 875.304 467.67 874.251 466.185C873.228 464.45 872.679 462.488 872.658 460.487C871.895 450.144 874.483 439.584 871.818 429.58C870.852 426.016 869.279 422.603 868.854 418.955C868.323 414.414 869.587 409.552 867.734 405.396C866.276 402.096 863.06 399.755 859.594 398.551C856.128 397.348 852.42 397.009 848.741 396.671C843.45 396.238 824.554 394.029 822.343 400.751Z" fill="#33313F"/>
</g>
<g id="password-11">
<path id="Vector_66" d="M733.213 359.577H727.622L732.595 354.744C732.684 354.655 732.734 354.535 732.734 354.41C732.734 354.286 732.684 354.166 732.595 354.077C732.55 354.032 732.496 353.998 732.438 353.974C732.379 353.95 732.316 353.937 732.252 353.937C732.188 353.937 732.125 353.95 732.066 353.974C732.007 353.998 731.954 354.032 731.909 354.077L726.937 358.919V353.465C726.937 353.341 726.886 353.221 726.795 353.133C726.705 353.045 726.582 352.995 726.454 352.995C726.327 352.998 726.205 353.048 726.115 353.136C726.025 353.223 725.974 353.341 725.971 353.465V358.919L721.008 354.048C720.963 354.004 720.91 353.969 720.851 353.945C720.792 353.922 720.729 353.909 720.665 353.909C720.602 353.909 720.538 353.922 720.48 353.945C720.421 353.969 720.367 354.004 720.323 354.048C720.233 354.138 720.184 354.258 720.184 354.382C720.184 354.507 720.233 354.626 720.323 354.716L725.295 359.549H719.695C719.568 359.551 719.446 359.602 719.356 359.689C719.266 359.777 719.215 359.895 719.212 360.019C719.212 360.144 719.263 360.263 719.354 360.351C719.444 360.44 719.567 360.489 719.695 360.489H725.295L720.323 365.332C720.233 365.421 720.184 365.541 720.184 365.665C720.184 365.79 720.233 365.91 720.323 365.999C720.416 366.084 720.538 366.131 720.665 366.131C720.793 366.131 720.915 366.084 721.008 365.999L725.971 361.157V366.601C725.971 366.726 726.022 366.845 726.112 366.933C726.203 367.022 726.326 367.071 726.454 367.071C726.582 367.071 726.705 367.022 726.795 366.933C726.886 366.845 726.937 366.726 726.937 366.601V361.157L731.909 365.999C732.002 366.084 732.125 366.131 732.252 366.131C732.379 366.131 732.502 366.084 732.595 365.999C732.684 365.91 732.734 365.79 732.734 365.665C732.734 365.541 732.684 365.421 732.595 365.332L727.622 360.489H733.213C733.341 360.489 733.464 360.44 733.554 360.351C733.645 360.263 733.695 360.144 733.695 360.019C733.688 359.899 733.634 359.787 733.544 359.705C733.454 359.623 733.336 359.577 733.213 359.577Z" fill="#CF9A09"/>
</g>
<g id="password-10">
<path id="Vector_67" d="M712.936 359.577H707.345L712.318 354.744C712.407 354.655 712.457 354.535 712.457 354.41C712.457 354.286 712.407 354.166 712.318 354.077C712.273 354.032 712.22 353.998 712.161 353.974C712.102 353.95 712.039 353.937 711.975 353.937C711.912 353.937 711.848 353.95 711.79 353.974C711.731 353.998 711.677 354.032 711.633 354.077L706.66 358.919V353.465C706.66 353.341 706.609 353.221 706.519 353.133C706.428 353.045 706.305 352.995 706.177 352.995C706.05 352.998 705.929 353.048 705.838 353.136C705.748 353.223 705.697 353.341 705.694 353.465V358.919L700.731 354.048C700.687 354.004 700.633 353.969 700.574 353.945C700.516 353.922 700.452 353.909 700.389 353.909C700.325 353.909 700.262 353.922 700.203 353.945C700.144 353.969 700.091 354.004 700.046 354.048C699.957 354.138 699.907 354.258 699.907 354.382C699.907 354.507 699.957 354.626 700.046 354.716L705.019 359.549H699.418C699.291 359.551 699.17 359.602 699.08 359.689C698.99 359.777 698.938 359.895 698.936 360.019C698.936 360.144 698.986 360.263 699.077 360.351C699.167 360.44 699.29 360.489 699.418 360.489H705.019L700.046 365.332C699.957 365.421 699.907 365.541 699.907 365.665C699.907 365.79 699.957 365.91 700.046 365.999C700.139 366.084 700.261 366.131 700.389 366.131C700.516 366.131 700.638 366.084 700.731 365.999L705.694 361.157V366.601C705.694 366.726 705.745 366.845 705.836 366.933C705.926 367.022 706.049 367.071 706.177 367.071C706.305 367.071 706.428 367.022 706.519 366.933C706.609 366.845 706.66 366.726 706.66 366.601V361.157L711.633 365.999C711.726 366.084 711.848 366.131 711.975 366.131C712.103 366.131 712.225 366.084 712.318 365.999C712.407 365.91 712.457 365.79 712.457 365.665C712.457 365.541 712.407 365.421 712.318 365.332L707.345 360.489H712.936C713.064 360.489 713.187 360.44 713.277 360.351C713.368 360.263 713.419 360.144 713.419 360.019C713.411 359.899 713.357 359.787 713.268 359.705C713.178 359.623 713.059 359.577 712.936 359.577Z" fill="#CF9A09"/>
</g>
<g id="password-9">
<path id="Vector_68" d="M692.659 359.577H687.069L692.041 354.744C692.131 354.655 692.18 354.535 692.18 354.41C692.18 354.286 692.131 354.166 692.041 354.077C691.997 354.032 691.943 353.998 691.884 353.974C691.826 353.95 691.762 353.937 691.699 353.937C691.635 353.937 691.572 353.95 691.513 353.974C691.454 353.998 691.401 354.032 691.356 354.077L686.383 358.919V353.465C686.383 353.341 686.332 353.221 686.242 353.133C686.151 353.045 686.029 352.995 685.901 352.995C685.773 352.998 685.652 353.048 685.562 353.136C685.472 353.223 685.42 353.341 685.418 353.465V358.919L680.455 354.048C680.41 354.004 680.357 353.969 680.298 353.945C680.239 353.922 680.176 353.909 680.112 353.909C680.048 353.909 679.985 353.922 679.926 353.945C679.868 353.969 679.814 354.004 679.769 354.048C679.68 354.138 679.63 354.258 679.63 354.382C679.63 354.507 679.68 354.626 679.769 354.716L684.742 359.549H679.142C679.014 359.551 678.893 359.602 678.803 359.689C678.713 359.777 678.661 359.895 678.659 360.019C678.659 360.144 678.71 360.263 678.8 360.351C678.891 360.44 679.014 360.489 679.142 360.489H684.742L679.769 365.332C679.68 365.421 679.63 365.541 679.63 365.665C679.63 365.79 679.68 365.91 679.769 365.999C679.862 366.084 679.985 366.131 680.112 366.131C680.239 366.131 680.362 366.084 680.455 365.999L685.418 361.157V366.601C685.418 366.726 685.469 366.845 685.559 366.933C685.65 367.022 685.773 367.071 685.901 367.071C686.029 367.071 686.151 367.022 686.242 366.933C686.332 366.845 686.383 366.726 686.383 366.601V361.157L691.356 365.999C691.449 366.084 691.571 366.131 691.699 366.131C691.826 366.131 691.948 366.084 692.041 365.999C692.131 365.91 692.18 365.79 692.18 365.665C692.18 365.541 692.131 365.421 692.041 365.332L687.069 360.489H692.659C692.787 360.489 692.91 360.44 693.001 360.351C693.091 360.263 693.142 360.144 693.142 360.019C693.135 359.899 693.081 359.787 692.991 359.705C692.901 359.623 692.783 359.577 692.659 359.577Z" fill="#CF9A09"/>
</g>
<g id="password-8">
<path id="Vector_69" d="M672.383 359.577H666.792L671.765 354.744C671.854 354.655 671.904 354.535 671.904 354.41C671.904 354.286 671.854 354.166 671.765 354.077C671.72 354.032 671.667 353.998 671.608 353.974C671.549 353.95 671.486 353.937 671.422 353.937C671.358 353.937 671.295 353.95 671.236 353.974C671.178 353.998 671.124 354.032 671.079 354.077L666.107 358.919V353.465C666.107 353.341 666.056 353.221 665.965 353.133C665.875 353.045 665.752 352.995 665.624 352.995C665.497 352.998 665.375 353.048 665.285 353.136C665.195 353.223 665.144 353.341 665.141 353.465V358.919L660.178 354.048C660.133 354.004 660.08 353.969 660.021 353.945C659.962 353.922 659.899 353.909 659.835 353.909C659.772 353.909 659.709 353.922 659.65 353.945C659.591 353.969 659.537 354.004 659.493 354.048C659.404 354.138 659.354 354.258 659.354 354.382C659.354 354.507 659.404 354.626 659.493 354.716L664.465 359.549H658.865C658.738 359.551 658.616 359.602 658.526 359.689C658.436 359.777 658.385 359.895 658.382 360.019C658.382 360.144 658.433 360.263 658.524 360.351C658.614 360.44 658.737 360.489 658.865 360.489H664.465L659.493 365.332C659.404 365.421 659.354 365.541 659.354 365.665C659.354 365.79 659.404 365.91 659.493 365.999C659.586 366.084 659.708 366.131 659.835 366.131C659.963 366.131 660.085 366.084 660.178 365.999L665.141 361.157V366.601C665.141 366.726 665.192 366.845 665.283 366.933C665.373 367.022 665.496 367.071 665.624 367.071C665.752 367.071 665.875 367.022 665.965 366.933C666.056 366.845 666.107 366.726 666.107 366.601V361.157L671.079 365.999C671.172 366.084 671.295 366.131 671.422 366.131C671.549 366.131 671.672 366.084 671.765 365.999C671.854 365.91 671.904 365.79 671.904 365.665C671.904 365.541 671.854 365.421 671.765 365.332L666.792 360.489H672.383C672.511 360.489 672.634 360.44 672.724 360.351C672.815 360.263 672.866 360.144 672.866 360.019C672.858 359.899 672.804 359.787 672.714 359.705C672.625 359.623 672.506 359.577 672.383 359.577Z" fill="#CF9A09"/>
</g>
<g id="password-7">
<path id="Vector_70" d="M652.106 359.577H646.516L651.488 354.744C651.577 354.655 651.627 354.535 651.627 354.41C651.627 354.286 651.577 354.166 651.488 354.077C651.443 354.032 651.39 353.998 651.331 353.974C651.272 353.95 651.209 353.937 651.145 353.937C651.082 353.937 651.019 353.95 650.96 353.974C650.901 353.998 650.848 354.032 650.803 354.077L645.83 358.919V353.465C645.83 353.341 645.779 353.221 645.689 353.133C645.598 353.045 645.475 352.995 645.347 352.995C645.22 352.998 645.099 353.048 645.009 353.136C644.919 353.223 644.867 353.341 644.865 353.465V358.919L639.902 354.048C639.857 354.004 639.803 353.969 639.744 353.945C639.686 353.922 639.622 353.909 639.559 353.909C639.495 353.909 639.432 353.922 639.373 353.945C639.314 353.969 639.261 354.004 639.216 354.048C639.127 354.138 639.077 354.258 639.077 354.382C639.077 354.507 639.127 354.626 639.216 354.716L644.189 359.549H638.588C638.461 359.551 638.34 359.602 638.25 359.689C638.16 359.777 638.108 359.895 638.106 360.019C638.106 360.144 638.156 360.263 638.247 360.351C638.338 360.44 638.46 360.489 638.588 360.489H644.189L639.216 365.332C639.127 365.421 639.077 365.541 639.077 365.665C639.077 365.79 639.127 365.91 639.216 365.999C639.309 366.084 639.431 366.131 639.559 366.131C639.686 366.131 639.809 366.084 639.902 365.999L644.865 361.157V366.601C644.865 366.726 644.915 366.845 645.006 366.933C645.096 367.022 645.219 367.071 645.347 367.071C645.475 367.071 645.598 367.022 645.689 366.933C645.779 366.845 645.83 366.726 645.83 366.601V361.157L650.803 365.999C650.896 366.084 651.018 366.131 651.145 366.131C651.273 366.131 651.395 366.084 651.488 365.999C651.577 365.91 651.627 365.79 651.627 365.665C651.627 365.541 651.577 365.421 651.488 365.332L646.516 360.489H652.106C652.234 360.489 652.357 360.44 652.448 360.351C652.538 360.263 652.589 360.144 652.589 360.019C652.582 359.899 652.527 359.787 652.438 359.705C652.348 359.623 652.229 359.577 652.106 359.577Z" fill="#CF9A09"/>
</g>
<g id="password-6">
<path id="Vector_71" d="M631.83 359.577H626.239L631.212 354.744C631.301 354.655 631.35 354.535 631.35 354.41C631.35 354.286 631.301 354.166 631.212 354.077C631.167 354.032 631.113 353.998 631.054 353.974C630.996 353.95 630.932 353.937 630.869 353.937C630.805 353.937 630.742 353.95 630.683 353.974C630.624 353.998 630.571 354.032 630.526 354.077L625.553 358.919V353.465C625.553 353.341 625.503 353.221 625.412 353.133C625.321 353.045 625.199 352.995 625.071 352.995C624.943 352.998 624.822 353.048 624.732 353.136C624.642 353.223 624.59 353.341 624.588 353.465V358.919L619.625 354.048C619.58 354.004 619.527 353.969 619.468 353.945C619.409 353.922 619.346 353.909 619.282 353.909C619.218 353.909 619.155 353.922 619.096 353.945C619.038 353.969 618.984 354.004 618.939 354.048C618.85 354.138 618.8 354.258 618.8 354.382C618.8 354.507 618.85 354.626 618.939 354.716L623.912 359.549H618.312C618.184 359.551 618.063 359.602 617.973 359.689C617.883 359.777 617.831 359.895 617.829 360.019C617.829 360.144 617.88 360.263 617.97 360.351C618.061 360.44 618.184 360.489 618.312 360.489H623.912L618.939 365.332C618.85 365.421 618.8 365.541 618.8 365.665C618.8 365.79 618.85 365.91 618.939 365.999C619.032 366.084 619.155 366.131 619.282 366.131C619.409 366.131 619.532 366.084 619.625 365.999L624.588 361.157V366.601C624.588 366.726 624.639 366.845 624.729 366.933C624.82 367.022 624.943 367.071 625.071 367.071C625.199 367.071 625.321 367.022 625.412 366.933C625.503 366.845 625.553 366.726 625.553 366.601V361.157L630.526 365.999C630.619 366.084 630.741 366.131 630.869 366.131C630.996 366.131 631.119 366.084 631.212 365.999C631.301 365.91 631.35 365.79 631.35 365.665C631.35 365.541 631.301 365.421 631.212 365.332L626.239 360.489H631.83C631.958 360.489 632.08 360.44 632.171 360.351C632.261 360.263 632.312 360.144 632.312 360.019C632.305 359.899 632.251 359.787 632.161 359.705C632.071 359.623 631.953 359.577 631.83 359.577Z" fill="#CF9A09"/>
</g>
<g id="password-5">
<path id="Vector_72" d="M611.553 359.577H605.962L610.935 354.744C611.024 354.655 611.074 354.535 611.074 354.41C611.074 354.286 611.024 354.166 610.935 354.077C610.89 354.032 610.837 353.998 610.778 353.974C610.719 353.95 610.656 353.937 610.592 353.937C610.528 353.937 610.465 353.95 610.407 353.974C610.348 353.998 610.294 354.032 610.249 354.077L605.277 358.919V353.465C605.277 353.341 605.226 353.221 605.135 353.133C605.045 353.045 604.922 352.995 604.794 352.995C604.667 352.998 604.545 353.048 604.455 353.136C604.365 353.223 604.314 353.341 604.311 353.465V358.919L599.348 354.048C599.303 354.004 599.25 353.969 599.191 353.945C599.132 353.922 599.069 353.909 599.005 353.909C598.942 353.909 598.879 353.922 598.82 353.945C598.761 353.969 598.708 354.004 598.663 354.048C598.574 354.138 598.524 354.258 598.524 354.382C598.524 354.507 598.574 354.626 598.663 354.716L603.635 359.549H598.035C597.908 359.551 597.786 359.602 597.696 359.689C597.606 359.777 597.555 359.895 597.552 360.019C597.552 360.144 597.603 360.263 597.694 360.351C597.784 360.44 597.907 360.489 598.035 360.489H603.635L598.663 365.332C598.574 365.421 598.524 365.541 598.524 365.665C598.524 365.79 598.574 365.91 598.663 365.999C598.756 366.084 598.878 366.131 599.005 366.131C599.133 366.131 599.255 366.084 599.348 365.999L604.311 361.157V366.601C604.311 366.726 604.362 366.845 604.453 366.933C604.543 367.022 604.666 367.071 604.794 367.071C604.922 367.071 605.045 367.022 605.135 366.933C605.226 366.845 605.277 366.726 605.277 366.601V361.157L610.249 365.999C610.342 366.084 610.465 366.131 610.592 366.131C610.719 366.131 610.842 366.084 610.935 365.999C611.024 365.91 611.074 365.79 611.074 365.665C611.074 365.541 611.024 365.421 610.935 365.332L605.962 360.489H611.553C611.681 360.489 611.804 360.44 611.894 360.351C611.985 360.263 612.036 360.144 612.036 360.019C612.028 359.899 611.974 359.787 611.884 359.705C611.795 359.623 611.676 359.577 611.553 359.577Z" fill="#CF9A09"/>
</g>
<g id="password-4">
<path id="Vector_73" d="M591.276 359.577H585.686L590.658 354.744C590.747 354.655 590.797 354.535 590.797 354.41C590.797 354.286 590.747 354.166 590.658 354.077C590.613 354.032 590.56 353.998 590.501 353.974C590.442 353.95 590.379 353.937 590.315 353.937C590.252 353.937 590.189 353.95 590.13 353.974C590.071 353.998 590.018 354.032 589.973 354.077L585 358.919V353.465C585 353.341 584.949 353.221 584.859 353.133C584.768 353.045 584.645 352.995 584.517 352.995C584.39 352.998 584.269 353.048 584.179 353.136C584.089 353.223 584.037 353.341 584.035 353.465V358.919L579.072 354.048C579.027 354.004 578.973 353.969 578.915 353.945C578.856 353.922 578.793 353.909 578.729 353.909C578.665 353.909 578.602 353.922 578.543 353.945C578.484 353.969 578.431 354.004 578.386 354.048C578.297 354.138 578.247 354.258 578.247 354.382C578.247 354.507 578.297 354.626 578.386 354.716L583.359 359.549H577.759C577.631 359.551 577.51 359.602 577.42 359.689C577.33 359.777 577.278 359.895 577.276 360.019C577.276 360.144 577.327 360.263 577.417 360.351C577.508 360.44 577.63 360.489 577.759 360.489H583.359L578.386 365.332C578.297 365.421 578.247 365.541 578.247 365.665C578.247 365.79 578.297 365.91 578.386 365.999C578.479 366.084 578.602 366.131 578.729 366.131C578.856 366.131 578.979 366.084 579.072 365.999L584.035 361.157V366.601C584.035 366.726 584.085 366.845 584.176 366.933C584.267 367.022 584.389 367.071 584.517 367.071C584.645 367.071 584.768 367.022 584.859 366.933C584.949 366.845 585 366.726 585 366.601V361.157L589.973 365.999C590.066 366.084 590.188 366.131 590.315 366.131C590.443 366.131 590.565 366.084 590.658 365.999C590.747 365.91 590.797 365.79 590.797 365.665C590.797 365.541 590.747 365.421 590.658 365.332L585.686 360.489H591.276C591.404 360.489 591.527 360.44 591.618 360.351C591.708 360.263 591.759 360.144 591.759 360.019C591.752 359.899 591.698 359.787 591.608 359.705C591.518 359.623 591.399 359.577 591.276 359.577Z" fill="#CF9A09"/>
</g>
<g id="password-3">
<path id="Vector_74" d="M571 359.577H565.409L570.382 354.744C570.471 354.655 570.521 354.535 570.521 354.41C570.521 354.286 570.471 354.166 570.382 354.077C570.337 354.032 570.283 353.998 570.225 353.974C570.166 353.95 570.103 353.937 570.039 353.937C569.975 353.937 569.912 353.95 569.853 353.974C569.794 353.998 569.741 354.032 569.696 354.077L564.724 358.919V353.465C564.724 353.341 564.673 353.221 564.582 353.133C564.492 353.045 564.369 352.995 564.241 352.995C564.114 352.998 563.992 353.048 563.902 353.136C563.812 353.223 563.76 353.341 563.758 353.465V358.919L558.795 354.048C558.75 354.004 558.697 353.969 558.638 353.945C558.579 353.922 558.516 353.909 558.452 353.909C558.389 353.909 558.325 353.922 558.267 353.945C558.208 353.969 558.154 354.004 558.109 354.048C558.02 354.138 557.971 354.258 557.971 354.382C557.971 354.507 558.02 354.626 558.109 354.716L563.082 359.549H557.482C557.355 359.551 557.233 359.602 557.143 359.689C557.053 359.777 557.002 359.895 556.999 360.019C556.999 360.144 557.05 360.263 557.141 360.351C557.231 360.44 557.354 360.489 557.482 360.489H563.082L558.109 365.332C558.02 365.421 557.971 365.541 557.971 365.665C557.971 365.79 558.02 365.91 558.109 365.999C558.202 366.084 558.325 366.131 558.452 366.131C558.58 366.131 558.702 366.084 558.795 365.999L563.758 361.157V366.601C563.758 366.726 563.809 366.845 563.899 366.933C563.99 367.022 564.113 367.071 564.241 367.071C564.369 367.071 564.492 367.022 564.582 366.933C564.673 366.845 564.724 366.726 564.724 366.601V361.157L569.696 365.999C569.789 366.084 569.912 366.131 570.039 366.131C570.166 366.131 570.289 366.084 570.382 365.999C570.471 365.91 570.521 365.79 570.521 365.665C570.521 365.541 570.471 365.421 570.382 365.332L565.409 360.489H571C571.128 360.489 571.25 360.44 571.341 360.351C571.432 360.263 571.482 360.144 571.482 360.019C571.475 359.899 571.421 359.787 571.331 359.705C571.241 359.623 571.123 359.577 571 359.577Z" fill="#CF9A09"/>
</g>
<g id="password-2">
<path id="Vector_75" d="M550.723 359.577H545.132L550.105 354.744C550.194 354.655 550.244 354.535 550.244 354.41C550.244 354.286 550.194 354.166 550.105 354.077C550.06 354.032 550.007 353.998 549.948 353.974C549.889 353.95 549.826 353.937 549.762 353.937C549.698 353.937 549.635 353.95 549.577 353.974C549.518 353.998 549.464 354.032 549.419 354.077L544.447 358.919V353.465C544.447 353.341 544.396 353.221 544.305 353.133C544.215 353.045 544.092 352.995 543.964 352.995C543.837 352.998 543.715 353.048 543.625 353.136C543.535 353.223 543.484 353.341 543.481 353.465V358.919L538.518 354.048C538.474 354.004 538.42 353.969 538.361 353.945C538.302 353.922 538.239 353.909 538.176 353.909C538.112 353.909 538.049 353.922 537.99 353.945C537.931 353.969 537.878 354.004 537.833 354.048C537.744 354.138 537.694 354.258 537.694 354.382C537.694 354.507 537.744 354.626 537.833 354.716L542.805 359.549H537.205C537.078 359.551 536.957 359.602 536.867 359.689C536.777 359.777 536.725 359.895 536.722 360.019C536.722 360.144 536.773 360.263 536.864 360.351C536.954 360.44 537.077 360.489 537.205 360.489H542.805L537.833 365.332C537.744 365.421 537.694 365.541 537.694 365.665C537.694 365.79 537.744 365.91 537.833 365.999C537.926 366.084 538.048 366.131 538.176 366.131C538.303 366.131 538.425 366.084 538.518 365.999L543.481 361.157V366.601C543.481 366.726 543.532 366.845 543.623 366.933C543.713 367.022 543.836 367.071 543.964 367.071C544.092 367.071 544.215 367.022 544.305 366.933C544.396 366.845 544.447 366.726 544.447 366.601V361.157L549.419 365.999C549.512 366.084 549.635 366.131 549.762 366.131C549.889 366.131 550.012 366.084 550.105 365.999C550.194 365.91 550.244 365.79 550.244 365.665C550.244 365.541 550.194 365.421 550.105 365.332L545.132 360.489H550.723C550.851 360.489 550.974 360.44 551.064 360.351C551.155 360.263 551.206 360.144 551.206 360.019C551.198 359.899 551.144 359.787 551.054 359.705C550.965 359.623 550.846 359.577 550.723 359.577Z" fill="#CF9A09"/>
</g>
<g id="password-1">
<path id="Vector_76" d="M530.446 359.577H524.856L529.828 354.744C529.917 354.655 529.967 354.535 529.967 354.41C529.967 354.286 529.917 354.166 529.828 354.077C529.784 354.032 529.73 353.998 529.671 353.974C529.612 353.95 529.549 353.937 529.486 353.937C529.422 353.937 529.359 353.95 529.3 353.974C529.241 353.998 529.188 354.032 529.143 354.077L524.17 358.919V353.465C524.17 353.341 524.119 353.221 524.029 353.133C523.938 353.045 523.816 352.995 523.687 352.995C523.56 352.998 523.439 353.048 523.349 353.136C523.259 353.223 523.207 353.341 523.205 353.465V358.919L518.242 354.048C518.197 354.004 518.143 353.969 518.085 353.945C518.026 353.922 517.963 353.909 517.899 353.909C517.835 353.909 517.772 353.922 517.713 353.945C517.654 353.969 517.601 354.004 517.556 354.048C517.467 354.138 517.417 354.258 517.417 354.382C517.417 354.507 517.467 354.626 517.556 354.716L522.529 359.549H516.929C516.801 359.551 516.68 359.602 516.59 359.689C516.5 359.777 516.448 359.895 516.446 360.019C516.446 360.144 516.497 360.263 516.587 360.351C516.678 360.44 516.801 360.489 516.929 360.489H522.529L517.556 365.332C517.467 365.421 517.417 365.541 517.417 365.665C517.417 365.79 517.467 365.91 517.556 365.999C517.649 366.084 517.772 366.131 517.899 366.131C518.026 366.131 518.149 366.084 518.242 365.999L523.205 361.157V366.601C523.205 366.726 523.256 366.845 523.346 366.933C523.437 367.022 523.559 367.071 523.687 367.071C523.816 367.071 523.938 367.022 524.029 366.933C524.119 366.845 524.17 366.726 524.17 366.601V361.157L529.143 365.999C529.236 366.084 529.358 366.131 529.486 366.131C529.613 366.131 529.735 366.084 529.828 365.999C529.917 365.91 529.967 365.79 529.967 365.665C529.967 365.541 529.917 365.421 529.828 365.332L524.856 360.489H530.446C530.574 360.489 530.697 360.44 530.788 360.351C530.878 360.263 530.929 360.144 530.929 360.019C530.922 359.899 530.868 359.787 530.778 359.705C530.688 359.623 530.57 359.577 530.446 359.577Z" fill="#CF9A09"/>
</g>
<g id="lock">
<path id="Vector_77" d="M364.854 283.886C350.149 283.886 335.775 288.132 323.549 296.087C311.322 304.043 301.793 315.35 296.166 328.58C290.538 341.809 289.066 356.366 291.935 370.411C294.803 384.455 301.884 397.356 312.282 407.481C322.68 417.607 335.927 424.502 350.349 427.296C364.771 430.089 379.72 428.655 393.305 423.176C406.891 417.696 418.502 408.416 426.672 396.51C434.841 384.604 439.202 370.606 439.202 356.286C439.202 346.778 437.278 337.364 433.542 328.58C429.806 319.796 424.329 311.814 417.426 305.091C410.522 298.368 402.326 293.035 393.305 289.397C384.285 285.758 374.617 283.886 364.854 283.886V283.886ZM378.188 358.026V392.308H351.906V358.026C348.269 355.345 345.588 351.619 344.243 347.375C342.897 343.13 342.954 338.581 344.406 334.37C345.859 330.159 348.632 326.499 352.336 323.905C356.039 321.312 360.485 319.917 365.047 319.917C369.609 319.917 374.055 321.312 377.758 323.905C381.462 326.499 384.235 330.159 385.688 334.37C387.14 338.581 387.197 343.13 385.851 347.375C384.506 351.619 381.825 355.345 378.188 358.026V358.026Z" fill="#CB9911"/>
<path id="Vector_78" opacity="0.05" d="M364.854 283.886C350.149 283.886 335.775 288.132 323.549 296.087C311.322 304.043 301.793 315.35 296.166 328.58C290.538 341.809 289.066 356.366 291.935 370.411C294.803 384.455 301.884 397.356 312.282 407.481C322.68 417.607 335.927 424.502 350.349 427.296C364.771 430.089 379.72 428.655 393.305 423.176C406.891 417.696 418.502 408.416 426.672 396.51C434.841 384.604 439.202 370.606 439.202 356.286C439.202 346.778 437.278 337.364 433.542 328.58C429.806 319.796 424.329 311.814 417.426 305.091C410.522 298.368 402.326 293.035 393.305 289.397C384.285 285.758 374.617 283.886 364.854 283.886ZM378.188 358.026V392.308H351.906V358.026C348.269 355.345 345.588 351.619 344.243 347.375C342.897 343.13 342.954 338.581 344.406 334.37C345.859 330.159 348.632 326.499 352.336 323.905C356.039 321.312 360.485 319.917 365.047 319.917C369.609 319.917 374.055 321.312 377.758 323.905C381.462 326.499 384.235 330.159 385.688 334.37C387.14 338.581 387.197 343.13 385.851 347.375C384.506 351.619 381.825 355.345 378.188 358.026Z" fill="black"/>
<path id="Vector_79" d="M364.854 263.2C345.948 263.2 327.467 268.659 311.747 278.888C296.027 289.116 283.775 303.654 276.54 320.664C269.305 337.673 267.412 356.389 271.101 374.446C274.789 392.503 283.893 409.09 297.262 422.108C310.63 435.127 327.663 443.992 346.205 447.584C364.748 451.176 383.968 449.332 401.434 442.287C418.901 435.241 433.83 423.31 444.334 408.002C454.837 392.694 460.444 374.697 460.444 356.286C460.444 331.598 450.373 307.921 432.446 290.464C414.519 273.007 390.206 263.2 364.854 263.2V263.2ZM381.992 358.524V402.594H348.198V358.524C343.52 355.077 340.072 350.285 338.341 344.827C336.61 339.368 336.683 333.518 338.55 328.102C340.417 322.686 343.984 317.978 348.747 314.643C353.51 311.307 359.229 309.513 365.095 309.513C370.962 309.513 376.68 311.307 381.443 314.643C386.206 317.978 389.773 322.686 391.64 328.102C393.507 333.518 393.581 339.368 391.85 344.827C390.118 350.285 386.67 355.077 381.992 358.524V358.524Z" fill="#FFBB02"/>
</g>
<g id="Group" opacity="0.1">
<path id="Vector_80" opacity="0.1" d="M827.373 459.96C825.178 470.17 822.143 480.191 818.297 489.926C818.964 488.638 819.524 487.284 820.055 485.94C823.926 476.167 826.977 466.104 829.179 455.851C831.931 443.063 832.983 428.583 824.969 418.099C823.038 415.598 820.557 412.89 820.644 409.957C819.93 410.844 819.375 411.842 819.002 412.909C818.037 416.303 820.991 419.397 823.154 422.218C831.168 432.683 830.116 447.182 827.373 459.96Z" fill="black"/>
<path id="Vector_81" opacity="0.1" d="M822.362 405.961C823.137 405.023 823.715 403.947 824.062 402.792C824.211 401.395 824.172 399.985 823.946 398.598C823.202 399.143 822.644 399.893 822.343 400.751C821.773 402.416 822.43 404.221 822.362 405.961Z" fill="black"/>
<path id="Vector_82" opacity="0.1" d="M879.909 490.66C879.27 491.615 878.393 492.398 877.36 492.935C876.01 493.4 874.551 493.471 873.16 493.142C866.7 492.202 859.642 490.265 853.926 493.302C850.827 494.938 848.423 497.909 844.976 498.661C839.269 499.903 834.403 494.571 828.764 493.02C824.766 491.939 820.557 492.832 816.53 493.96C815.73 495.622 814.65 497.141 813.334 498.455C817.776 497.213 822.497 495.963 826.949 497.166C832.587 498.69 837.454 504.021 843.17 502.808C846.607 502.065 849.021 499.094 852.111 497.449C857.904 494.411 864.885 496.32 871.345 497.298C872.737 497.618 874.193 497.546 875.545 497.091C876.578 496.55 877.455 495.764 878.094 494.806C879.844 492.559 881.195 490.042 882.091 487.359C881.446 488.509 880.717 489.612 879.909 490.66Z" fill="black"/>
</g>
</g>
</g>
<defs>
<linearGradient id="paint0_linear" x1="742.125" y1="575.839" x2="889.854" y2="575.839" gradientUnits="userSpaceOnUse">
<stop stop-color="#808080" stop-opacity="0.25"/>
<stop offset="0.54" stop-color="#808080" stop-opacity="0.12"/>
<stop offset="1" stop-color="#808080" stop-opacity="0.1"/>
</linearGradient>
<clipPath id="clip0">
<rect width="1126" height="757" fill="white"/>
</clipPath>
</defs>
</svg>
